<svg xmlns:rdf="http://www.w3.org/1999/02/22-rdf-syntax-ns#" xmlns="http://www.w3.org/2000/svg" height="500" width="365" version="1.1" xmlns:cc="http://creativecommons.org/ns#" xmlns:dc="http://purl.org/dc/elements/1.1/" viewBox="0 0 365 499.99999">
 <g transform="translate(-247.27 -85.932)">
  <text style="word-spacing:0px;letter-spacing:0px" xml:space="preserve" font-size="12px" y="413.9458" x="364.66507" font-family="Sans" line-height="125%" fill="#ffffff"><tspan x="364.66507" y="413.9458"/></text>
  <g transform="matrix(1.5475 0 0 1.5469 -135.3 -322.33)" stroke="#000" stroke-width="1.2926">
   <g fill="#fff">
    <rect height="22.223" width="22.223" y="292.22" x="247.99"/>
    <rect height="22.223" width="22.223" y="314.45" x="247.99"/>
    <rect height="22.223" width="22.223" y="336.67" x="247.99"/>
    <rect height="22.223" width="22.223" y="336.67" x="270.22"/>
   </g>
   <g fill="#3278c3">
    <rect height="22.223" width="22.223" y="292.22" x="270.22"/>
    <rect height="22.223" width="22.223" y="314.45" x="270.22"/>
    <rect height="22.223" width="22.223" y="292.22" x="292.44"/>
    <rect height="22.223" width="22.223" y="314.45" x="292.44"/>
   </g>
   <rect height="22.223" width="22.223" y="336.67" x="292.44" fill="#fff"/>
  </g>
  <g transform="matrix(1.5475 0 0 1.5469 -135.3 -343.93)" stroke="#000" stroke-width="1.2926">
   <rect height="22.223" width="22.223" y="381.62" x="247.99" fill="#fff"/>
   <rect height="22.223" width="22.223" y="403.84" x="247.99" fill="#fff"/>
   <rect height="22.223" width="22.223" y="426.07" x="247.99" fill="#3278c3"/>
   <rect height="22.223" width="22.223" y="426.07" x="270.22" fill="#3278c3"/>
   <g fill="#fff">
    <rect height="22.223" width="22.223" y="381.62" x="270.22"/>
    <rect height="22.223" width="22.223" y="403.84" x="270.22"/>
    <rect height="22.223" width="22.223" y="381.62" x="292.44"/>
    <rect height="22.223" width="22.223" y="403.84" x="292.44"/>
   </g>
   <rect height="22.223" width="22.223" y="426.07" x="292.44" fill="#3278c3"/>
  </g>
  <g transform="matrix(1.5475 0 0 1.5469 -135.3 -363.96)" stroke="#000" stroke-width="1.2926">
   <g fill="#3278c3">
    <rect height="22.223" width="22.223" y="470.01" x="247.99"/>
    <rect height="22.223" width="22.223" y="492.23" x="247.99"/>
    <rect height="22.223" width="22.223" y="514.46" x="247.99"/>
    <rect height="22.223" width="22.223" y="514.46" x="270.22"/>
    <rect height="22.223" width="22.223" y="470.01" x="270.22"/>
    <rect height="22.223" width="22.223" y="492.23" x="270.22"/>
   </g>
   <g fill="#fff">
    <rect height="22.223" width="22.223" y="470.01" x="292.44"/>
    <rect height="22.223" width="22.223" y="492.23" x="292.44"/>
    <rect height="22.223" width="22.223" y="514.46" x="292.44"/>
   </g>
  </g>
  <g transform="matrix(1.5475 0 0 1.5469 -135.3 -394.15)" stroke="#000" stroke-width="1.2926">
   <rect height="22.223" width="22.223" y="564.96" x="247.99" fill="#fff"/>
   <rect height="22.223" width="22.223" y="587.19" x="247.99" fill="#3278c3"/>
   <g fill="#fff">
    <rect height="22.223" width="22.223" y="609.41" x="247.99"/>
    <rect height="22.223" width="22.223" y="609.41" x="270.22"/>
    <rect height="22.223" width="22.223" y="564.96" x="270.22"/>
   </g>
   <rect height="22.223" width="22.223" y="587.19" x="270.22" fill="#3278c3"/>
   <g fill="#fff">
    <rect height="22.223" width="22.223" y="564.96" x="292.44"/>
    <rect height="22.223" width="22.223" y="587.19" x="292.44"/>
    <rect height="22.223" width="22.223" y="609.41" x="292.44"/>
   </g>
  </g>
  <text style="word-spacing:0px;letter-spacing:0px" xml:space="preserve" transform="scale(1.0002 .99980)" font-size="18.567px" y="102.38134" x="403.1546" font-family="Sans" line-height="125%" fill="#ffffff"><tspan x="403.1546" y="102.38134">Expressão</tspan></text>
  <text style="word-spacing:0px;letter-spacing:0px" xml:space="preserve" transform="scale(1.0002 .99980)" font-size="18.567px" y="102.22269" x="554.758" font-family="Sans" line-height="125%" fill="#ffffff"><tspan x="554.758" y="102.22269">Shape</tspan></text>
  <g font-size="12px" transform="matrix(1.5475 0 0 1.5469 -135.3 -288.38)" font-family="Sans" fill="#ffffff">
   <text style="word-spacing:0px;letter-spacing:0px" line-height="125%" y="307.37469" x="350.49365" xml:space="preserve"><tspan y="307.37469" x="350.49365">arr[:2, 1:]</tspan></text>
   <text style="word-spacing:0px;letter-spacing:0px" line-height="125%" y="307.36884" x="448.7099" xml:space="preserve"><tspan y="307.36884" x="448.7099">(2, 2)</tspan></text>
  </g>
  <g font-size="12px" transform="matrix(1.5475 0 0 1.5469 -135.3 -327.71)" font-family="Sans" fill="#ffffff">
   <text style="word-spacing:0px;letter-spacing:0px" line-height="125%" y="393.23767" x="404.11865" xml:space="preserve"><tspan y="393.23767" x="404.11865" style="text-anchor:end;text-align:end">arr[2]</tspan><tspan y="408.23767" x="404.11865" style="text-anchor:end;text-align:end">arr[2, :]</tspan><tspan y="423.23767" x="404.11865" style="text-anchor:end;text-align:end">arr[2:, :]</tspan></text>
   <text style="word-spacing:0px;letter-spacing:0px" line-height="125%" y="393.23181" x="481.00677" xml:space="preserve"><tspan y="393.23181" x="481.00677" style="text-anchor:end;text-align:end">(3,)</tspan><tspan y="408.23181" x="481.00677" style="text-anchor:end;text-align:end">(3,)</tspan><tspan y="423.23181" x="481.00677" style="text-anchor:end;text-align:end">(1, 3)</tspan></text>
  </g>
  <g font-size="12px" transform="matrix(1.5475 0 0 1.5469 -135.3 -325.32)" font-family="Sans" fill="#ffffff">
   <text style="word-spacing:0px;letter-spacing:0px" line-height="125%" y="482.1311" x="354.31396" xml:space="preserve"><tspan y="482.1311" x="354.31396">arr[:, :2]</tspan></text>
   <text style="word-spacing:0px;letter-spacing:0px" line-height="125%" y="482.12524" x="448.7099" xml:space="preserve"><tspan y="482.12524" x="448.7099">(3, 2)</tspan></text>
  </g>
  <g font-size="12px" transform="matrix(1.5475 0 0 1.5469 -135.3 -366.33)" font-family="Sans" fill="#ffffff">
   <text style="word-spacing:0px;letter-spacing:0px" line-height="125%" y="576.58038" x="411.75928" xml:space="preserve"><tspan y="576.58038" x="411.75928" style="text-anchor:end;text-align:end">arr[1, :2]</tspan><tspan y="591.58038" x="411.75928" style="text-anchor:end;text-align:end">arr[1:2, :2]</tspan></text>
   <text style="word-spacing:0px;letter-spacing:0px" line-height="125%" y="576.57452" x="481.00677" xml:space="preserve"><tspan y="576.57452" x="481.00677" style="text-anchor:end;text-align:end">(2,)</tspan><tspan y="591.57452" x="481.00677" style="text-anchor:end;text-align:end">(1, 2)</tspan></text>
  </g>
  <flowRoot font-size="12px" xml:space="preserve" style="word-spacing:0px;letter-spacing:0px" line-height="125%" font-family="Sans" fill="#ffffff"><flowRegion><rect y="283.64" width="151.02" x="362.14" height="49.497"/></flowRegion><flowPara/></flowRoot>
 </g>
</svg>
